# Exported from Wings 3D 1.5.4
mtllib tris.mtl
o Shroom6_Cylinder.004
#65 vertices, 64 faces
v -4.4172781e-2 0.62562600 -3.4578552e-4
v 1.8943010e-2 0.16032385 2.6093960e-2
v 2.9739112e-2 0.16045711 -2.5584604e-9
v 1.8943010e-2 0.16032385 -2.6093965e-2
v -7.1482792e-3 0.16000132 -3.6918157e-2
v -3.3253618e-2 0.15967823 -2.6108027e-2
v -4.4063743e-2 0.15954440 -2.5584604e-9
v -3.3253618e-2 0.15967823 2.6108022e-2
v -7.1482792e-3 0.16000132 3.6918152e-2
v 2.3650521e-2 0.62058673 -1.1712151e-6
v 7.9652200e-2 0.58203250 -2.5584604e-9
v 0.15815145 0.52554458 -2.5584604e-9
v 0.15987190 0.52592776 -2.5584604e-9
v 0.12119930 0.52117482 -2.5584604e-9
v 8.4354449e-3 0.55276169 -7.8635254e-9
v 1.6337164e-2 0.31346328 -8.1436086e-9
v 4.3916742e-3 0.61980799 4.2531682e-2
v 4.9853325e-2 0.58058883 6.6569482e-2
v 0.10019835 0.52360874 0.12310648
v 0.10309079 0.52449523 0.11413495
v 7.7760860e-2 0.52001689 9.0993230e-2
v -3.5524137e-3 0.55268449 2.3271177e-2
v 5.1094645e-3 0.33248502 2.3082495e-2
v 4.3966485e-3 0.61980729 -4.2539378e-2
v 4.9853325e-2 0.58058883 -6.6569487e-2
v 0.10019835 0.52360874 -0.12310648
v 0.10309079 0.52449523 -0.11413496
v 7.7760860e-2 0.52001689 -9.0993235e-2
v -3.5524581e-3 0.55268450 -2.3271237e-2
v 5.1094427e-3 0.33248514 -2.3082527e-2
v -4.2700825e-2 0.61860999 -5.9801268e-2
v -2.3628630e-2 0.57690369 -9.6296521e-2
v 3.7939781e-3 0.51815806 -0.18522327
v 8.8237281e-3 0.51072069 -0.17114976
v 1.2325798e-2 0.50554355 -0.13058093
v -3.0111165e-2 0.55235782 -3.2741242e-2
v -1.7053014e-2 0.33444367 -3.1543250e-2
v -8.9537861e-2 0.61709315 -4.3035270e-2
v -0.10071755 0.57300049 -7.0388058e-2
v -0.14501842 0.51440878 -0.13097376
v -0.13629564 0.50706484 -0.12102202
v -9.2582852e-2 0.50290036 -9.2336355e-2
v -5.7578421e-2 0.55173457 -2.4253396e-2
v -3.8831662e-2 0.33153735 -2.3412802e-2
v -0.10982263 0.61642923 -1.2133653e-6
v -0.13446692 0.57144075 -2.5584604e-9
v -0.20665758 0.51285590 -2.5584604e-9
v -0.19640712 0.50555013 -2.5584604e-9
v -0.13603989 0.50180545 -2.5584604e-9
v -7.0468435e-2 0.55133806 1.0370943e-8
v -4.8049231e-2 0.31302164 1.0997748e-8
v -8.9532922e-2 0.61709417 4.3027313e-2
v -0.10071755 0.57300049 7.0388053e-2
v -0.14501842 0.51440878 0.13097376
v -0.13629564 0.50706484 0.12102201
v -9.2582852e-2 0.50290036 9.2336349e-2
v -5.7578343e-2 0.55173459 2.4253462e-2
v -3.8831660e-2 0.33153755 2.3412815e-2
v -4.2700842e-2 0.61861133 5.9788009e-2
v -2.3628630e-2 0.57690369 9.6296516e-2
v 3.7939781e-3 0.51815806 0.18522326
v 8.8237281e-3 0.51072069 0.17114976
v 1.2329208e-2 0.50554355 0.13058093
v -3.0111041e-2 0.55235783 3.2741267e-2
v -1.7053025e-2 0.33444387 3.1543239e-2
vt 1.5503000e-2 1.0488000e-2
vt 1.5503000e-2 0.13286600
vt 1.5503000e-2 0.25524400
vt 1.5503000e-2 0.37762200
vt 1.5503000e-2 0.50000000
vt 1.5503000e-2 0.62237800
vt 1.5503000e-2 0.74475600
vt 1.5503000e-2 0.86713400
vt 1.5503000e-2 0.98951200
vt 0.13697900 1.0488000e-2
vt 0.13697900 0.13286600
vt 0.13697900 0.25524400
vt 0.13697900 0.37762200
vt 0.13697900 0.50000000
vt 0.13697900 0.62237800
vt 0.13697900 0.74475600
vt 0.13697900 0.86713400
vt 0.13697900 0.98951200
vt 0.25845500 1.0488000e-2
vt 0.25845500 0.13286600
vt 0.25845500 0.25524400
vt 0.25845500 0.37762200
vt 0.25845500 0.50000000
vt 0.25845500 0.62237800
vt 0.25845500 0.74475600
vt 0.25845500 0.86713400
vt 0.25845500 0.98951200
vt 0.37993100 1.0488000e-2
vt 0.37993100 0.13286600
vt 0.37993100 0.25524400
vt 0.37993100 0.37762200
vt 0.37993100 0.50000000
vt 0.37993100 0.62237800
vt 0.37993100 0.74475600
vt 0.37993100 0.86713400
vt 0.37993100 0.98951200
vt 0.50140600 1.0488000e-2
vt 0.50140600 0.13286600
vt 0.50140600 0.25524400
vt 0.50140600 0.37762200
vt 0.50140600 0.50000000
vt 0.50140600 0.62237800
vt 0.50140600 0.74475600
vt 0.50140600 0.86713400
vt 0.50140600 0.98951200
vt 0.62288200 1.0488000e-2
vt 0.62288200 0.13286600
vt 0.62288200 0.25524400
vt 0.62288200 0.37762200
vt 0.62288200 0.50000000
vt 0.62288200 0.62237800
vt 0.62288200 0.74475600
vt 0.62288200 0.86713400
vt 0.62288200 0.98951200
vt 0.74435800 1.0488000e-2
vt 0.74435800 0.13286600
vt 0.74435800 0.25524400
vt 0.74435800 0.37762200
vt 0.74435800 0.50000000
vt 0.74435800 0.62237800
vt 0.74435800 0.74475600
vt 0.74435800 0.86713400
vt 0.74435800 0.98951200
vt 0.86583300 1.0488000e-2
vt 0.86583300 0.13286600
vt 0.86583300 0.25524400
vt 0.86583300 0.37762200
vt 0.86583300 0.50000000
vt 0.86583300 0.62237800
vt 0.86583300 0.74475600
vt 0.86583300 0.86713400
vt 0.86583300 0.98951200
vt 0.98730900 1.0488000e-2
vt 0.98730900 0.13286600
vt 0.98730900 0.25524400
vt 0.98730900 0.37762200
vt 0.98730900 0.50000000
vt 0.98730900 0.62237800
vt 0.98730900 0.74475600
vt 0.98730900 0.86713400
vn -3.0621483e-2 0.99953097 -3.9534221e-4
vn 0.70118929 6.9728203e-2 0.70955730
vn 0.99618554 8.7260362e-2 -4.2425393e-8
vn 0.70118911 6.9728152e-2 -0.70955748
vn 2.1368121e-3 2.8598327e-2 -0.99958870
vn -0.70145575 -1.0194012e-2 -0.71264010
vn -0.99966310 -2.5955605e-2 1.0183970e-7
vn -0.70145556 -1.0194044e-2 0.71264029
vn 2.1371914e-3 2.8598360e-2 0.99958870
vn 0.32771966 0.94477501 -5.7978670e-5
vn 0.57716838 0.81662517 4.3573252e-6
vn -0.30459972 0.95248045 -5.0757906e-16
vn -0.69608822 -0.71795626 -4.7293540e-16
vn -7.2632678e-2 -0.99735876 4.2783158e-10
vn 0.56565360 -0.82464295 -2.2275025e-7
vn 0.99808144 6.1914743e-2 -1.5846084e-7
vn 0.23278710 0.92671674 0.29496821
vn 0.40873990 0.79518417 0.44789934
vn 0.19460224 0.76970596 0.60801538
vn -8.5894714e-2 -0.99607519 2.1361274e-2
vn 3.2613207e-3 -0.99429069 -0.10665549
vn 0.41459270 -0.82628069 0.38127827
vn 0.68629273 4.7320553e-2 0.72578444
vn 0.23305001 0.92652604 -0.29535941
vn 0.40876412 0.79516266 -0.44791543
vn 0.19460224 0.76970596 -0.60801538
vn -8.5898035e-2 -0.99607497 -2.1358187e-2
vn 3.2593870e-3 -0.99429042 0.10665805
vn 0.41459258 -0.82628081 -0.38127814
vn 0.68629211 4.7320548e-2 -0.72578502
vn -3.1101930e-2 0.88534135 -0.46390016
vn -1.3370597e-2 0.74258448 -0.66961894
vn 9.1076083e-2 -8.3447021e-2 -0.99234154
vn 9.5408694e-2 -0.96062208 -0.26096438
vn 8.7268152e-2 -0.97931798 0.18253923
vn 7.9113778e-2 -0.86949267 -0.48756898
vn 8.5176427e-3 1.0635400e-2 -0.99990716
vn -0.37519967 0.84655898 -0.37757529
vn -0.51618552 0.66850010 -0.53540651
vn -0.68433151 -8.2669282e-2 -0.72446958
vn -0.18815626 -0.95552137 -0.22710381
vn 0.18512739 -0.96942899 0.16104438
vn -0.23204350 -0.91396754 -0.33289509
vn -0.67840672 -3.4479743e-2 -0.73387701
vn -0.55327292 0.83300004 -6.3946320e-5
vn -0.76662294 0.64209755 6.6189678e-6
vn -0.99743017 -7.1645418e-2 -2.4921542e-17
vn -0.29761580 -0.95468573 -5.4523500e-18
vn 0.27732743 -0.96077547 -3.4445977e-8
vn -0.34773797 -0.93759176 5.9208640e-7
vn -0.99833608 -5.7663515e-2 3.8327609e-7
vn -0.37495754 0.84684625 0.37717142
vn -0.51615257 0.66854464 0.53538266
vn -0.68433151 -8.2669282e-2 0.72446958
vn -0.18815615 -0.95552142 0.22710367
vn 0.18512641 -0.96942898 -0.16104552
vn -0.23204490 -0.91396748 0.33289429
vn -0.67840613 -3.4479721e-2 0.73387756
vn -3.1112038e-2 0.88569126 0.46323107
vn -1.3371850e-2 0.74262977 0.66956868
vn 9.1076083e-2 -8.3447021e-2 0.99234154
vn 9.5411136e-2 -0.96062131 0.26096630
vn 8.7269217e-2 -0.97931815 -0.18253777
vn 7.9112705e-2 -0.86949306 0.48756845
vn 8.5187587e-3 1.0635417e-2 0.99990716
g Shroom6_Cylinder.004_Shroom
usemtl Shroom
s 1
f 1/45/1 17/44/17 10/53/10
f 1/36/1 59/35/59 17/44/17
f 2/37/2 23/38/23 65/29/65 9/28/9
f 3/46/3 16/47/16 23/38/23 2/37/2
f 4/55/4 30/56/30 16/47/16 3/46/3
f 5/64/5 37/65/37 30/56/30 4/55/4
f 6/73/6 44/74/44 37/65/37 5/64/5
f 7/10/7 51/11/51 44/2/44 6/1/6
f 8/19/8 58/20/58 51/11/51 7/10/7
f 9/28/9 65/29/65 58/20/58 8/19/8
f 10/53/10 17/44/17 18/43/18 11/52/11
f 10/53/10 24/62/24 1/54/1
f 11/52/11 18/43/18 19/42/19 12/51/12
f 11/52/11 25/61/25 24/62/24 10/53/10
f 12/51/12 19/42/19 20/41/20 13/50/13
f 12/51/12 26/60/26 25/61/25 11/52/11
f 13/50/13 20/41/20 21/40/21 14/49/14
f 13/50/13 27/59/27 26/60/26 12/51/12
f 14/49/14 21/40/21 22/39/22 15/48/15
f 14/49/14 28/58/28 27/59/27 13/50/13
f 15/48/15 22/39/22 23/38/23 16/47/16
f 15/48/15 29/57/29 28/58/28 14/49/14
f 16/47/16 30/56/30 29/57/29 15/48/15
f 17/44/17 59/35/59 60/34/60 18/43/18
f 18/43/18 60/34/60 61/33/61 19/42/19
f 19/42/19 61/33/61 62/32/62 20/41/20
f 20/41/20 62/32/62 63/31/63 21/40/21
f 21/40/21 63/31/63 64/30/64 22/39/22
f 22/39/22 64/30/64 65/29/65 23/38/23
f 24/62/24 31/71/31 1/63/1
f 25/61/25 32/70/32 31/71/31 24/62/24
f 26/60/26 33/69/33 32/70/32 25/61/25
f 27/59/27 34/68/34 33/69/33 26/60/26
f 28/58/28 35/67/35 34/68/34 27/59/27
f 29/57/29 36/66/36 35/67/35 28/58/28
f 30/56/30 37/65/37 36/66/36 29/57/29
f 31/71/31 38/80/38 1/72/1
f 32/70/32 39/79/39 38/80/38 31/71/31
f 33/69/33 40/78/40 39/79/39 32/70/32
f 34/68/34 41/77/41 40/78/40 33/69/33
f 35/67/35 42/76/42 41/77/41 34/68/34
f 36/66/36 43/75/43 42/76/42 35/67/35
f 37/65/37 44/74/44 43/75/43 36/66/36
f 38/8/38 45/17/45 1/9/1
f 39/7/39 46/16/46 45/17/45 38/8/38
f 40/6/40 47/15/47 46/16/46 39/7/39
f 41/5/41 48/14/48 47/15/47 40/6/40
f 42/4/42 49/13/49 48/14/48 41/5/41
f 43/3/43 50/12/50 49/13/49 42/4/42
f 44/2/44 51/11/51 50/12/50 43/3/43
f 45/17/45 52/26/52 1/18/1
f 46/16/46 53/25/53 52/26/52 45/17/45
f 47/15/47 54/24/54 53/25/53 46/16/46
f 48/14/48 55/23/55 54/24/54 47/15/47
f 49/13/49 56/22/56 55/23/55 48/14/48
f 50/12/50 57/21/57 56/22/56 49/13/49
f 51/11/51 58/20/58 57/21/57 50/12/50
f 52/26/52 59/35/59 1/27/1
f 53/25/53 60/34/60 59/35/59 52/26/52
f 54/24/54 61/33/61 60/34/60 53/25/53
f 55/23/55 62/32/62 61/33/61 54/24/54
f 56/22/56 63/31/63 62/32/62 55/23/55
f 57/21/57 64/30/64 63/31/63 56/22/56
f 58/20/58 65/29/65 64/30/64 57/21/57
