# Exported from Wings 3D 1.5.3
mtllib tris.mtl
o sphere1
#153 vertices, 136 faces
v 1.00000000 0.83439160 0.0000000e+0
v -1.00000000 0.83439160 1.2246468e-16
v -0.92387953 0.83439160 -0.38268343
v -0.70710678 0.83439160 -0.70710678
v -0.38268343 0.83439160 -0.92387953
v -1.8369702e-16 0.83439160 -1.00000000
v 0.38268343 0.83439160 -0.92387953
v 0.70710678 0.83439160 -0.70710678
v 0.92387953 0.83439160 -0.38268343
v 0.92387953 0.45170817 0.0000000e+0
v -0.92387953 0.45170817 1.1314261e-16
v -0.85355339 0.45170817 -0.35355339
v -0.65328148 0.45170817 -0.65328148
v -0.35355339 0.45170817 -0.85355339
v -1.6971392e-16 0.45170817 -0.92387953
v 0.35355339 0.45170817 -0.85355339
v 0.65328148 0.45170817 -0.65328148
v 0.85355339 0.45170817 -0.35355339
v 0.70710678 0.12728482 0.0000000e+0
v -0.70710678 0.12728482 8.6595606e-17
v -0.65328148 0.12728482 -0.27059805
v -0.50000000 0.12728482 -0.50000000
v -0.27059805 0.12728482 -0.65328148
v -1.2989341e-16 0.12728482 -0.70710678
v 0.27059805 0.12728482 -0.65328148
v 0.50000000 0.12728482 -0.50000000
v 0.65328148 0.12728482 -0.27059805
v 0.38268343 0.0000000e+0 1.5581106e-18
v -0.38268343 0.0000000e+0 4.8423315e-17
v -0.35355339 0.0000000e+0 -0.14644661
v -0.27059805 0.0000000e+0 -0.27059805
v -0.14644661 0.0000000e+0 -0.35355339
v -7.0297806e-17 0.0000000e+0 -0.38268343
v 0.14644661 0.0000000e+0 -0.35355339
v 0.27059805 0.0000000e+0 -0.27059805
v 0.35355339 0.0000000e+0 -0.14644661
v 0.91968735 0.85036678 1.1578212e-17
v -0.91968735 0.85036678 1.0972865e-16
v -0.84968032 0.85036678 -0.35194911
v -0.65031716 0.85036678 -0.65031716
v -0.35194911 0.85036678 -0.84968032
v -1.7211881e-16 0.85036678 -0.91968735
v 0.35194911 0.85036678 -0.84968032
v 0.65031716 0.85036678 -0.65031716
v 0.84968032 0.85036678 -0.35194911
v 0.84652871 0.48257344 3.1438088e-17
v -0.84652871 0.48257344 9.3920319e-17
v -0.78209055 0.48257344 -0.32395251
v -0.59858619 0.48257344 -0.59858619
v -0.32395251 0.48257344 -0.78209055
v -1.4035482e-16 0.48257344 -0.84652871
v 0.32395251 0.48257344 -0.78209055
v 0.59858619 0.48257344 -0.59858619
v 0.78209055 0.48257344 -0.32395251
v 0.65271215 0.19250646 0.0000000e+0
v -0.65271215 0.19250646 7.7895700e-17
v -0.60302740 0.19250646 -0.24978213
v -0.46153719 0.19250646 -0.46153719
v -0.24978213 0.19250646 -0.60302740
v -1.1945376e-16 0.19250646 -0.65271215
v 0.24978213 0.19250646 -0.60302740
v 0.46153719 0.19250646 -0.46153719
v 0.60302740 0.19250646 -0.24978213
v 0.36690115 8.0370879e-2 -1.6759353e-16
v -0.36690115 8.0370879e-2 4.4531490e-17
v -0.33897246 8.0370879e-2 -0.14040699
v -0.25943829 8.0370879e-2 -0.25943829
v -0.14040699 8.0370879e-2 -0.33897246
v -6.4647910e-17 8.0370879e-2 -0.36690115
v 0.14040699 8.0370879e-2 -0.33897246
v 0.25943829 8.0370879e-2 -0.25943829
v 0.33897246 8.0370879e-2 -0.14040699
v 0.96193977 0.83439160 -0.19134172
v 0.96193977 0.64304988 0.0000000e+0
v 0.88871646 0.64304988 -0.36811841
v 0.88871646 0.45170817 -0.17677670
v 0.92532811 0.64304988 -0.18405921
v 1.84291315 1.13922385 0.0000000e+0
v 1.80485292 1.01740311 0.0000000e+0
v 1.80685703 1.02355053 -0.13145200
v 1.84346868 1.14537128 -0.13873451
v 2.09230369 1.15189619 7.1906400e-18
v 2.05424346 0.98517649 7.1906400e-18
v 2.05579384 0.99314274 -0.12956258
v 2.09240549 1.15986244 -0.13684509
v -0.92387953 0.83439160 0.38268343
v -0.70710678 0.83439160 0.70710678
v -0.38268343 0.83439160 0.92387953
v -7.8542745e-19 0.83439160 1.00000000
v 0.38268343 0.83439160 0.92387953
v 0.70710678 0.83439160 0.70710678
v 0.92387953 0.83439160 0.38268343
v -0.85355339 0.45170817 0.35355339
v -0.65328148 0.45170817 0.65328148
v -0.35355339 0.45170817 0.85355339
v -7.2564034e-19 0.45170817 0.92387953
v 0.35355339 0.45170817 0.85355339
v 0.65328148 0.45170817 0.65328148
v 0.85355339 0.45170817 0.35355339
v -0.65328148 0.12728482 0.27059805
v -0.50000000 0.12728482 0.50000000
v -0.27059805 0.12728482 0.65328148
v -5.5538107e-19 0.12728482 0.70710678
v 0.27059805 0.12728482 0.65328148
v 0.50000000 0.12728482 0.50000000
v 0.65328148 0.12728482 0.27059805
v -0.35355339 1.0551608e-16 0.14644661
v -0.27059805 1.9496829e-16 0.27059805
v -0.14644661 2.5473835e-16 0.35355339
v -3.0057007e-19 2.7572680e-16 0.38268343
v 0.14644661 2.5473835e-16 0.35355339
v 0.27059805 1.9496829e-16 0.27059805
v 0.35355339 1.0551608e-16 0.14644661
v -0.84968032 0.85036678 0.35194911
v -0.65031716 0.85036678 0.65031716
v -0.35194911 0.85036678 0.84968032
v -3.8973289e-18 0.85036678 0.91968735
v 0.35194911 0.85036678 0.84968032
v 0.65031716 0.85036678 0.65031716
v 0.84968032 0.85036678 0.35194911
v -0.78209055 0.48257344 0.32395251
v -0.59858619 0.48257344 0.59858619
v -0.32395251 0.48257344 0.78209055
v 1.4485098e-17 0.48257344 0.84652871
v 0.32395251 0.48257344 0.78209055
v 0.59858619 0.48257344 0.59858619
v 0.78209055 0.48257344 0.32395251
v -0.60302740 0.19250646 0.24978213
v -0.46153719 0.19250646 0.46153719
v -0.24978213 0.19250646 0.60302740
v -6.5141732e-20 0.19250646 0.65271215
v 0.24978213 0.19250646 0.60302740
v 0.46153719 0.19250646 0.46153719
v 0.60302740 0.19250646 0.24978213
v -0.33897246 8.0370879e-2 0.14040699
v -0.25943829 8.0370879e-2 0.25943829
v -0.14040699 8.0370879e-2 0.33897246
v 2.4625642e-18 8.0370879e-2 0.36690115
v 0.14040699 8.0370879e-2 0.33897246
v 0.25943829 8.0370879e-2 0.25943829
v 0.33897246 8.0370879e-2 0.14040699
v 0.96193977 0.83439160 0.19134172
v 0.88871646 0.64304988 0.36811841
v 0.88871646 0.45170817 0.17677670
v 0.92532811 0.64304988 0.18405921
v 1.84291315 1.13922385 -7.9688968e-16
v 1.80485292 1.01740311 -7.0215510e-16
v 1.80685703 1.02355053 0.13145200
v 1.84346868 1.14537128 0.13873451
v 2.09230369 1.15189619 -8.5882728e-16
v 2.05424346 0.98517649 -7.3174260e-16
v 2.05579384 0.99314274 0.12956258
v 2.09240549 1.15986244 0.13684509
vt 0.0000000e+0 0.20436167
vt 0.0000000e+0 0.74102517
vt 1.6684260e-2 0.35274085
vt 1.9892271e-2 0.84103037
vt 2.8998787e-2 0.21387110
vt 3.2294592e-2 0.27533538
vt 3.5534952e-2 0.64545315
vt 4.4092881e-2 0.34127432
vt 7.0915342e-2 9.8188084e-2
vt 7.2520633e-2 0.92180914
vt 8.0310616e-2 0.39212028
vt 8.5920061e-2 0.22755687
vt 8.6229520e-2 0.27776205
vt 8.8646077e-2 0.11323228
vt 9.0678875e-2 0.74827786
vt 9.8097221e-2 0.32425186
vt 0.10024215 0.81216672
vt 0.10033383 0.57406646
vt 0.10347011 0.45658428
vt 0.11027554 0.68672127
vt 0.11664611 0.43673004
vt 0.11988245 0.36401805
vt 0.13155371 0.23667406
vt 0.13246796 0.27364414
vt 0.13341577 0.86640279
vt 0.13933212 0.30978379
vt 0.14821026 0.40016285
vt 0.14826446 0.97631298
vt 0.15164811 0.63844755
vt 0.15287988 0.75325282
vt 0.15619122 0.34179739
vt 0.15710882 3.2420465e-2
vt 0.15806496 0.79287291
vt 0.15971280 0.16966510
vt 0.16429655 0.71496058
vt 0.16716545 5.0461747e-2
vt 0.17664119 0.37080277
vt 0.17829244 0.82723901
vt 0.18358028 0.90379105
vt 0.18377798 0.53229481
vt 0.18972928 0.68424649
vt 0.19674159 0.50458378
vt 0.20064883 0.75707349
vt 0.20205825 0.24704440
vt 0.20325630 0.77827370
vt 0.20374704 0.48564983
vt 0.20576587 0.28962113
vt 0.20659287 0.73655724
vt 0.20711765 0.60950814
vt 0.20989216 0.85130341
vt 0.21021519 0.12176413
vt 0.21391855 0.79687179
vt 0.21729469 0.20624625
vt 0.22007569 0.71989032
vt 0.22475225 0.66551071
vt 0.22665162 0.32667524
vt 0.23095739 0.81003001
vt 0.23276943 0.40984555
vt 0.23702068 1.00000000
vt 0.23898939 0.70960766
vt 0.24341081 0.92010549
vt 0.24689432 0.17551148
vt 0.24807044 0.86184720
vt 0.25175085 0.81583178
vt 0.25318941 0.0000000e+0
vt 0.25576800 0.25341879
vt 0.25653834 1.9376069e-2
vt 0.25743534 0.27488631
vt 0.26044067 0.70718472
vt 0.26068349 0.35258330
vt 0.26291238 0.23298619
vt 0.26412108 0.66116929
vt 0.26756865 0.29396162
vt 0.26878070 0.60291101
vt 0.27143337 9.7246670e-2
vt 0.27320213 0.81340884
vt 0.27517083 0.52301650
vt 0.27749572 0.21694306
vt 0.28123412 0.71298648
vt 0.28445557 0.30768698
vt 0.28506608 0.15874616
vt 0.28743927 0.85750579
vt 0.29211582 0.80312618
vt 0.29262917 0.52301650
vt 0.29333384 0.50383182
vt 0.29664676 0.42588198
vt 0.29710169 0.20768598
vt 0.29827297 0.72614470
vt 0.30088930 0.36383903
vt 0.30229936 0.67171309
vt 0.30507386 0.91350836
vt 0.30526203 0.31409320
vt 0.30559864 0.78645926
vt 0.30893522 0.74474280
vt 0.31154268 0.76594301
vt 0.31862912 0.20642913
vt 0.32246223 0.83877001
vt 0.32601445 0.15717984
vt 0.32681386 0.31230763
vt 0.32841354 0.99072169
vt 0.32861123 0.61922545
vt 0.33389908 0.69577749
vt 0.33566583 9.6072623e-2
vt 0.33901661 0.21330661
vt 0.34167048 0.35989909
vt 0.34597107 0.30271631
vt 0.34789497 0.80805592
vt 0.34853776 1.9591673e-2
vt 0.35183403 5.5593317e-4
vt 0.35412656 0.73014358
vt 0.35526438 0.22716588
vt 0.35931164 0.76976367
vt 0.35993575 0.28679085
vt 0.36019662 0.41891917
vt 0.36054340 0.88456894
vt 0.36392706 0.54670352
vt 0.36442934 0.17049255
vt 0.36494541 0.24594076
vt 0.36662439 0.26688027
vt 0.37785948 0.34154262
vt 0.37877575 0.65661370
vt 0.38313813 0.49291502
vt 0.38867764 0.51130970
vt 0.39530191 0.19686461
vt 0.39581183 0.11733684
vt 0.40191597 0.83629523
vt 0.40469536 0.31122569
vt 0.41185769 0.94895004
vt 0.41194937 0.71084978
vt 0.41415753 0.23270240
vt 0.41716038 0.39021123
vt 0.41768627 0.27296988
vt 0.42151264 0.77473864
vt 0.43476039 5.0170207e-2
vt 0.43967088 0.60120736
vt 0.44432379 3.3321416e-2
vt 0.44478049 0.15855291
vt 0.46061873 0.34249020
vt 0.46542080 0.45248086
vt 0.47594895 0.21549352
vt 0.47665657 0.87756334
vt 0.47710008 0.46830701
vt 0.48286567 0.28086225
vt 0.49229925 0.68198613
vt 0.50640388 0.10877138
vt 0.51219152 0.55440340
vt 0.51219152 0.59162310
vt 0.51219152 0.78199133
vt 0.51219243 0.55897778
vt 0.52105612 0.52301650
vt 0.52152815 9.5966091e-2
vt 0.53132854 0.38438078
vt 0.53692572 0.56052695
vt 0.53795647 0.55897778
vt 0.53831687 0.59311179
vt 0.54548043 0.52721117
vt 0.54878279 0.39563558
vt 0.55501695 0.19148835
vt 0.57033284 0.29167780
vt 0.57479068 0.18470486
vt 0.58558304 0.55694544
vt 0.59303738 0.53374972
vt 0.59407719 0.18685822
vt 0.59407719 0.29468754
vt 0.59407719 0.35075870
vt 0.59600540 0.37614718
vt 0.60139844 0.32077220
vt 0.60201565 0.29826437
vt 0.60254900 0.15186853
vt 0.61486832 0.21814695
vt 0.62611375 0.25398671
vt 0.63959998 0.34652906
vt 0.64226815 0.37280530
vt 0.64561756 0.29925602
vt 0.64971537 0.32419193
vt 0.77917820 0.16217691
vt 0.78006332 0.18746944
vt 0.79475799 0.20716786
vt 0.79738678 0.23339821
vt 0.81379313 0.35848367
vt 0.81663264 0.25398671
vt 0.81757805 0.32121266
vt 0.82208508 0.15253351
vt 0.82715153 0.17466388
vt 0.83196880 0.28658104
vt 0.83946401 0.20252527
vt 0.84266772 0.22739234
vn -7.3945287e-2 0.99726230 1.8563207e-16
vn -0.82645739 0.56299927 4.9540385e-17
vn -0.76354707 0.56299927 -0.31627155
vn -0.58439363 0.56299927 -0.58439363
vn -0.31627155 0.56299927 -0.76354707
vn -7.9264617e-17 0.56299927 -0.82645739
vn 0.31627155 0.56299927 -0.76354707
vn 0.58439363 0.56299927 -0.58439363
vn 0.76354707 0.56299927 -0.31627156
vn 0.92368211 -0.38315970 -2.8758115e-17
vn -0.92368211 -0.38315969 5.0326702e-17
vn -0.85337100 -0.38315969 -0.35347784
vn -0.65314189 -0.38315969 -0.65314189
vn -0.35347784 -0.38315969 -0.85337100
vn -7.9084817e-17 -0.38315969 -0.92368211
vn 0.35347784 -0.38315969 -0.85337100
vn 0.65314189 -0.38315969 -0.65314189
vn 0.85337100 -0.38315969 -0.35347784
vn 0.62576673 -0.78001026 5.1316630e-17
vn -0.62576673 -0.78001026 8.4305892e-17
vn -0.57813307 -0.78001026 -0.23947056
vn -0.44248390 -0.78001026 -0.44248390
vn -0.23947056 -0.78001026 -0.57813307
vn -5.1316630e-17 -0.78001026 -0.62576673
vn 0.23947056 -0.78001026 -0.57813307
vn 0.44248390 -0.78001026 -0.44248390
vn 0.57813307 -0.78001026 -0.23947056
vn 0.18561194 -0.98262313 2.3306109e-16
vn -0.18561194 -0.98262313 2.4395738e-16
vn -0.22829430 -0.96898897 -9.4562593e-2
vn -0.17472889 -0.96898897 -0.17472889
vn -9.4562593e-2 -0.96898897 -0.22829430
vn -2.8241640e-17 -0.96898897 -0.24710397
vn 9.4562593e-2 -0.96898897 -0.22829430
vn 0.17472889 -0.96898897 -0.17472889
vn 0.22829430 -0.96898897 -9.4562593e-2
vn -0.54809658 0.83641505 1.5852924e-16
vn 0.54809657 0.83641506 -3.9632309e-17
vn 0.50637520 0.83641506 0.20974748
vn 0.38756280 0.83641506 0.38756280
vn 0.20974748 0.83641506 0.50637520
vn 7.9264618e-17 0.83641506 0.54809657
vn -0.20974748 0.83641506 0.50637520
vn -0.38756280 0.83641506 0.38756280
vn -0.50637521 0.83641506 0.20974748
vn -0.92368212 0.38315969 -1.4379058e-17
vn 0.92368212 0.38315969 -5.7516231e-17
vn 0.85337100 0.38315968 0.35347784
vn 0.65314189 0.38315968 0.65314189
vn 0.35347784 0.38315968 0.85337100
vn 9.3463875e-17 0.38315969 0.92368212
vn -0.35347784 0.38315968 0.85337100
vn -0.65314189 0.38315968 0.65314189
vn -0.85337100 0.38315968 0.35347784
vn -0.62576672 0.78001026 1.0996421e-17
vn 0.62576672 0.78001026 -3.2989262e-17
vn 0.57813307 0.78001026 0.23947056
vn 0.44248389 0.78001026 0.44248389
vn 0.23947056 0.78001026 0.57813307
vn 4.3985683e-17 0.78001026 0.62576672
vn -0.23947056 0.78001026 0.57813307
vn -0.44248389 0.78001026 0.44248389
vn -0.57813307 0.78001026 0.23947056
vn -0.18561194 0.98262313 1.7678071e-17
vn 0.18561194 0.98262313 -1.0606842e-17
vn 0.22829429 0.96898898 9.4562589e-2
vn 0.17472888 0.96898898 0.17472888
vn 9.4562589e-2 0.96898898 0.22829429
vn 1.8827760e-17 0.96898898 0.24710396
vn -9.4562589e-2 0.96898898 0.22829429
vn -0.17472888 0.96898898 0.17472888
vn -0.22829429 0.96898898 9.4562589e-2
vn 0.40709282 0.74719804 -0.52532898
vn 0.77709182 -0.62938725 -6.9157879e-17
vn 0.92905102 -0.19467912 -0.31458582
vn 0.90847551 -0.37685173 -0.18070702
vn 0.77268196 -0.43649311 -0.46090818
vn -0.13565329 0.67055934 0.72934790
vn 0.10307261 -0.70731622 0.69934241
vn 0.12516321 -0.68653617 -0.71624175
vn -0.11399194 0.68965007 -0.71511441
vn 0.57751145 0.48806317 0.65442713
vn 0.48620214 -0.69057821 0.53545235
vn 0.46149812 -0.67890599 -0.57105703
vn 0.61146366 0.47922059 -0.62965055
vn -0.76354707 0.56299927 0.31627155
vn -0.58439363 0.56299927 0.58439363
vn -0.31627155 0.56299927 0.76354707
vn 0.0000000e+0 0.56299927 0.82645739
vn 0.31627155 0.56299927 0.76354707
vn 0.58439363 0.56299927 0.58439363
vn 0.76354707 0.56299927 0.31627156
vn -0.85337100 -0.38315969 0.35347784
vn -0.65314189 -0.38315969 0.65314189
vn -0.35347784 -0.38315969 0.85337100
vn 0.0000000e+0 -0.38315969 0.92368211
vn 0.35347784 -0.38315969 0.85337100
vn 0.65314189 -0.38315969 0.65314189
vn 0.85337100 -0.38315969 0.35347784
vn -0.57813307 -0.78001026 0.23947056
vn -0.44248390 -0.78001026 0.44248390
vn -0.23947056 -0.78001026 0.57813307
vn 0.0000000e+0 -0.78001026 0.62576673
vn 0.23947056 -0.78001026 0.57813307
vn 0.44248390 -0.78001026 0.44248390
vn 0.57813307 -0.78001026 0.23947056
vn -0.22829430 -0.96898897 9.4562593e-2
vn -0.17472889 -0.96898897 0.17472889
vn -9.4562593e-2 -0.96898897 0.22829430
vn 0.0000000e+0 -0.96898897 0.24710397
vn 9.4562593e-2 -0.96898897 0.22829430
vn 0.17472889 -0.96898897 0.17472889
vn 0.22829430 -0.96898897 9.4562593e-2
vn 0.50637520 0.83641506 -0.20974748
vn 0.38756280 0.83641506 -0.38756280
vn 0.20974748 0.83641506 -0.50637520
vn 0.0000000e+0 0.83641506 -0.54809657
vn -0.20974748 0.83641506 -0.50637520
vn -0.38756280 0.83641506 -0.38756280
vn -0.50637521 0.83641506 -0.20974748
vn 0.85337100 0.38315968 -0.35347784
vn 0.65314189 0.38315968 -0.65314189
vn 0.35347784 0.38315968 -0.85337100
vn -7.1895288e-18 0.38315969 -0.92368212
vn -0.35347784 0.38315968 -0.85337100
vn -0.65314189 0.38315968 -0.65314189
vn -0.85337100 0.38315968 -0.35347784
vn 0.57813307 0.78001026 -0.23947056
vn 0.44248389 0.78001026 -0.44248389
vn 0.23947056 0.78001026 -0.57813307
vn -7.3309471e-18 0.78001026 -0.62576672
vn -0.23947056 0.78001026 -0.57813307
vn -0.44248389 0.78001026 -0.44248389
vn -0.57813307 0.78001026 -0.23947056
vn 0.22829429 0.96898898 -9.4562589e-2
vn 0.17472888 0.96898898 -0.17472888
vn 9.4562589e-2 0.96898898 -0.22829429
vn 0.0000000e+0 0.96898898 -0.24710396
vn -9.4562589e-2 0.96898898 -0.22829429
vn -0.17472888 0.96898898 -0.17472888
vn -0.22829429 0.96898898 -9.4562589e-2
vn 0.40709282 0.74719804 0.52532898
vn 0.92905102 -0.19467912 0.31458582
vn 0.90847551 -0.37685173 0.18070702
vn 0.77268196 -0.43649311 0.46090818
vn -0.13565329 0.67055934 -0.72934790
vn 0.10307261 -0.70731622 -0.69934241
vn 0.12516321 -0.68653617 0.71624175
vn -0.11399194 0.68965007 0.71511441
vn 0.57751145 0.48806317 -0.65442713
vn 0.48620214 -0.69057821 -0.53545235
vn 0.46149812 -0.67890599 0.57105703
vn 0.61146366 0.47922059 0.62965055
g sphere1_sphere1_auv
usemtl sphere1_auv
s 1
f 1/8/1 73/11/73 9/21/9 45/19/45 37/3/37
f 1/180/1 78/173/78 81/172/81 73/182/73
f 1//1 146//146 147//147 74//74
f 2/158/2 38/160/38 39/164/39 3/159/3
f 2/158/2 86/145/86 114/151/114 38/160/38
f 3/159/3 12/143/12 11/140/11 2/158/2
f 3/159/3 39/164/39 40/157/40 4/152/4
f 4/152/4 13/138/13 12/143/12 3/159/3
f 4/152/4 40/157/40 41/142/41 5/139/5
f 5/139/5 14/131/14 13/138/13 4/152/4
f 5/139/5 41/142/41 42/123/42 6/122/6
f 6/122/6 15/114/15 14/131/14 5/139/5
f 6/122/6 42/123/42 43/84/43 7/85/7
f 7/85/7 16/86/16 15/114/15 6/122/6
f 7/85/7 43/84/43 44/42/44 8/46/8
f 8/46/8 17/58/17 16/86/16 7/85/7
f 8/46/8 44/42/44 45/19/45 9/21/9
f 9/21/9 75/27/75 18/37/18 17/58/17 8/46/8
f 10/26/10 76/31/76 18/37/18 75/27/75 77/22/77 74/16/74
f 10/26/10 144/24/144 99/23/99 106/44/106 19/47/19
f 11/140/11 93/137/93 86/145/86 2/158/2
f 12/143/12 21/132/21 20/130/20 11/140/11
f 13/138/13 22/127/22 21/132/21 12/143/12
f 14/131/14 23/120/23 22/127/22 13/138/13
f 15/114/15 24/105/24 23/120/23 14/131/14
f 16/86/16 25/89/25 24/105/24 15/114/15
f 17/58/17 26/70/26 25/89/25 16/86/16
f 18/37/18 27/56/27 26/70/26 17/58/17
f 19/47/19 27/56/27 18/37/18 76/31/76 10/26/10
f 19/47/19 28/68/28 36/73/36 27/56/27
f 19/47/19 106/44/106 113/66/113 28/68/28
f 20/130/20 100/124/100 93/137/93 11/140/11
f 21/132/21 30/119/30 29/118/29 20/130/20
f 22/127/22 31/113/31 30/119/30 21/132/21
f 23/120/23 32/106/32 31/113/31 22/127/22
f 24/105/24 33/99/33 32/106/32 23/120/23
f 25/89/25 34/92/34 33/99/33 24/105/24
f 26/70/26 35/80/35 34/92/34 25/89/25
f 27/56/27 36/73/36 35/80/35 26/70/26
f 28/68/28 113/66/113 112/71/112 111/78/111 110/87/110 109/96/109 108/104/108 107/111/107 29/118/29
f 29/118/29 30/119/30 31/113/31 32/106/32 33/99/33 34/92/34 35/80/35 36/73/36 28/68/28
f 29/118/29 107/111/107 100/124/100 20/130/20
f 37/3/37 120/1/120 92/5/92 142/6/142 1/8/1
f 38/2/38 47/15/47 48/17/48 39/4/39
f 38/2/38 114/7/114 121/20/121 47/15/47
f 39/4/39 48/17/48 49/25/49 40/10/40
f 40/10/40 49/25/49 50/39/50 41/28/41
f 41/28/41 50/39/50 51/61/51 42/59/42
f 42/59/42 51/61/51 52/91/52 43/100/43
f 43/100/43 52/91/52 53/115/53 44/128/44
f 44/128/44 53/115/53 54/126/54 45/141/45
f 45/141/45 54/126/54 46/133/46 37/148/37
f 46/133/46 127/129/127 120/144/120 37/148/37
f 47/15/47 56/30/56 57/33/57 48/17/48
f 47/15/47 121/20/121 128/35/128 56/30/56
f 48/17/48 57/33/57 58/38/58 49/25/49
f 49/25/49 58/38/58 59/50/59 50/39/50
f 50/39/50 59/50/59 60/63/60 51/61/51
f 51/61/51 60/63/60 61/82/61 52/91/52
f 52/91/52 61/82/61 62/97/62 53/115/53
f 53/115/53 62/97/62 63/107/63 54/126/54
f 54/126/54 63/107/63 55/112/55 46/133/46
f 55/112/55 134/110/134 127/129/127 46/133/46
f 56/30/56 65/43/65 66/45/66 57/33/57
f 56/30/56 128/35/128 135/48/135 65/43/65
f 57/33/57 66/45/66 67/52/67 58/38/58
f 58/38/58 67/52/67 68/57/68 59/50/59
f 59/50/59 68/57/68 69/64/69 60/63/60
f 60/63/60 69/64/69 70/76/70 61/82/61
f 61/82/61 70/76/70 71/83/71 62/97/62
f 62/97/62 71/83/71 72/93/72 63/107/63
f 63/107/63 72/93/72 64/95/64 55/112/55
f 64/95/64 72/93/72 71/83/71 70/76/70 69/64/69 68/57/68 67/52/67 66/45/66 65/43/65
f 64/95/64 141/94/141 134/110/134 55/112/55
f 65/43/65 135/48/135 136/54/136 137/60/137 138/69/138 139/79/139 140/88/140 141/94/141 64/95/64
f 73/11/73 77/22/77 75/27/75 9/21/9
f 73/182/73 81/172/81 80/175/80 77/185/77
f 74//74 79//79 78//78 1//1
f 74/16/74 145/13/145 143/12/143 99/23/99 144/24/144 10/26/10
f 74/169/74 147/176/147 148/177/148 145/163/145
f 77/185/77 80/175/80 79/174/79 74/181/74
f 78/173/78 82/166/82 85/165/85 81/172/81
f 79//79 83//83 82//82 78//78
f 80/175/80 84/167/84 83/168/83 79/174/79
f 81/172/81 85/165/85 84/167/84 80/175/80
f 83/149/83 84/153/84 85/155/85 82/147/82
f 86/145/86 93/137/93 94/125/94 87/134/87
f 87/134/87 94/125/94 95/103/95 88/108/88
f 87/134/87 115/136/115 114/151/114 86/145/86
f 88/108/88 95/103/95 96/75/96 89/67/89
f 88/108/88 116/109/116 115/136/115 87/134/87
f 89/67/89 96/75/96 97/51/97 90/36/90
f 89/67/89 117/65/117 116/109/116 88/108/88
f 90/36/90 97/51/97 98/34/98 91/14/91
f 90/36/90 118/32/118 117/65/117 89/67/89
f 91/14/91 98/34/98 99/23/99 143/12/143 92/5/92
f 91/14/91 119/9/119 118/32/118 90/36/90
f 92/5/92 120/1/120 119/9/119 91/14/91
f 92/5/92 143/12/143 145/13/145 142/6/142
f 93/137/93 100/124/100 101/117/101 94/125/94
f 94/125/94 101/117/101 102/98/102 95/103/95
f 95/103/95 102/98/102 103/81/103 96/75/96
f 96/75/96 103/81/103 104/62/104 97/51/97
f 97/51/97 104/62/104 105/53/105 98/34/98
f 98/34/98 105/53/105 106/44/106 99/23/99
f 100/124/100 107/111/107 108/104/108 101/117/101
f 101/117/101 108/104/108 109/96/109 102/98/102
f 102/98/102 109/96/109 110/87/110 103/81/103
f 103/81/103 110/87/110 111/78/111 104/62/104
f 104/62/104 111/78/111 112/71/112 105/53/105
f 105/53/105 112/71/112 113/66/113 106/44/106
f 115/18/115 122/29/122 121/20/121 114/7/114
f 116/40/116 123/49/123 122/29/122 115/18/115
f 117/77/117 124/74/124 123/49/123 116/40/116
f 118/116/118 125/101/125 124/74/124 117/77/117
f 119/135/119 126/121/126 125/101/125 118/116/118
f 120/144/120 127/129/127 126/121/126 119/135/119
f 122/29/122 129/41/129 128/35/128 121/20/121
f 123/49/123 130/55/130 129/41/129 122/29/122
f 124/74/124 131/72/131 130/55/130 123/49/123
f 125/101/125 132/90/132 131/72/131 124/74/124
f 126/121/126 133/102/133 132/90/132 125/101/125
f 127/129/127 134/110/134 133/102/133 126/121/126
f 129/41/129 136/54/136 135/48/135 128/35/128
f 130/55/130 137/60/137 136/54/136 129/41/129
f 131/72/131 138/69/138 137/60/137 130/55/130
f 132/90/132 139/79/139 138/69/138 131/72/131
f 133/102/133 140/88/140 139/79/139 132/90/132
f 134/110/134 141/94/141 140/88/140 133/102/133
f 142/170/142 149/178/149 146/179/146 1/171/1
f 145/163/145 148/177/148 149/178/149 142/170/142
f 146/161/146 150/154/150 151/156/151 147/162/147
f 147/176/147 151/183/151 152/184/152 148/177/148
f 148/177/148 152/184/152 153/186/153 149/178/149
f 149/178/149 153/186/153 150/187/150 146/179/146
f 150/154/150 153/146/153 152/150/152 151/156/151
